<svg xmlns="http://www.w3.org/2000/svg" width="1.4in" height="1.4in" viewBox="0 0 100 100"><path fill="#fff" d="M92.7 25.2a5.2 5.2 0 0 0-5.2 5.2 5.4 5.4 0 0 0 2.5 4.5l-3.3 10.4-1.7-.4-2.1-8a5.3 5.3 0 1 0-2.5.6h.1l2 7.5c-3.3.8-6 3.9-8.5 6.7s-5.5 6.2-8.8 6.7c-.8-9-3.8-16.1-9-21.2a29.8 29.8 0 0 0-19.7-8.1 23.6 23.6 0 0 0-23.6 23.6 16.9 16.9 0 0 0 4.9 11.9C9.6 67 4.4 69.8 2.3 72.8a1.3 1.3 0 0 0 1 2h83.8a1.3 1.3 0 0 0 1.2-1.1 1.3 1.3 0 0 0-.9-1.4c-2.1-.6-5.4-2.1-6.1-3.5a.8.8 0 0 1 0-.7 22 22 0 0 1 2.8-3.7c3.4-4 8-9.6 7.4-14a5.6 5.6 0 0 0-2.6-4h-.1l3.5-10.8h.4a5.2 5.2 0 1 0 0-10.4zm-15.1 7.1a2.8 2.8 0 0 1 2.8-2.8 2.8 2.8 0 1 1 0 5.5 2.8 2.8 0 0 1-2.8-2.7zm-41.2-.6c.9 0 10.6.2 17.9 7.4 5.4 5.3 8.2 13.1 8.5 23.1H43.6a16.9 16.9 0 0 0 2.9-9.4 10.2 10.2 0 0 0-20.4 0 1.2 1.2 0 0 0 1.2 1.2 1.3 1.3 0 0 0 1.2-1.2 7.7 7.7 0 1 1 15.4 0 14.4 14.4 0 1 1-28.8 0 21.3 21.3 0 0 1 21.3-21.1zm52.7 19.1c.5 3.4-3.9 8.6-6.8 12.1a21.5 21.5 0 0 0-3.1 4.2 3.1 3.1 0 0 0 0 2.8 6.8 6.8 0 0 0 2.3 2.5H6.3c2.7-2 7.4-4 13.7-5.7a16.7 16.7 0 0 0 21.5-2H64a1.2 1.2 0 0 0 1.2-1.2 20.9 20.9 0 0 0-.1-2.5c4.3-.6 7.6-4.3 10.6-7.6 4.4-5 7.3-7.8 11.8-4.8a2.7 2.7 0 0 1 1.6 2.2zm3.6-17.6a2.8 2.8 0 0 1-2.8-2.8 2.8 2.8 0 1 1 5.6 0 2.8 2.8 0 0 1-2.8 2.8z"/></svg>